<svg xmlns="http://www.w3.org/2000/svg" xmlns:xlink="http://www.w3.org/1999/xlink" width="1440" height="565" viewBox="0 0 1440 565">
    <defs>
        <path id="a" d="M0 0h1440v565H0z"/>
        <linearGradient id="b" x1="50%" x2="50%" y1="0%" y2="100%">
            <stop offset="0%" stop-color="#DDE6F8"/>
            <stop offset="98.496%" stop-color="#DBE1EC"/>
        </linearGradient>
    </defs>
    <g fill="none" fill-rule="evenodd">
        <mask id="c" fill="#fff">
            <use xlink:href="#a"/>
        </mask>
        <use fill="#EAEEF3" xlink:href="#a"/>
        <path fill="url(#b)" d="M-1565.59 510.888c3.214-7.079 7.231-10.618 12.051-10.618 4.821 7.079 7.231 8.848 7.231 5.309 0-5.309 3.616-5.309 10.846-5.309 7.231 0 9.641 5.309 13.257 5.309 3.615 0 8.436-5.309 19.282-5.309s16.871 10.618 30.128 10.618c13.256 0 28.923-10.618 34.948-5.31 6.026 5.31 8.436 12.388 14.462 12.388 6.025 0 15.666-8.848 28.923-8.848 13.256 0 21.692 8.848 34.948 8.848 13.257 0 36.154-5.309 53.026 0 16.871 5.31 39.769 12.388 54.23-12.387 14.462-24.775 28.923-70.786 33.744-83.173 4.82-12.387 13.256-12.387 18.077-21.236 4.82-8.848 25.307-47.78 25.307-63.707 0-15.926 16.872-26.544 20.487-37.162 3.616-10.618 25.308-54.859 25.308-67.246 0-12.387 8.436-49.55 24.102-69.016 15.667-19.466 26.513-31.853 26.513-38.932 0-7.078 10.846-10.618 15.667-5.309 4.82 5.31 8.435-3.539 12.05-8.848 3.616-5.309 7.232-8.848 10.847 0 3.615 8.848 6.026 12.388 13.256 0 7.231-12.387 12.052-38.932 22.898-38.932s12.05 28.314 27.717 28.314c15.667 0 14.462 14.157 24.103 19.466 9.64 5.31 26.513 8.848 32.538-19.466 6.026-28.314 15.667-74.324 31.333-109.717 15.667-35.393 37.36-74.325 40.975-92.021 3.615-17.697 14.461-44.241 24.102-44.241s19.282 19.466 26.513 19.466c7.23 0 21.692-7.079 27.718 0 6.025 7.078 18.076 19.466 22.897 0 4.82-19.466 10.846-35.393 19.282-46.01 8.436-10.618 18.077-44.241 30.128-53.09 12.051-8.848 22.897-26.544 28.923-26.544s12.051 12.387 15.667 12.387c3.615 0 24.102-15.926 27.717-23.005 3.616-7.079 9.641-14.157 14.462-10.618 4.82 3.54 12.051 0 15.667 10.618 3.615 10.618 14.461 31.853 21.692 37.162 7.23 5.31 10.846 28.315 14.461 33.623 3.616 5.31 10.846 15.927 14.462 24.775 3.615 8.849 9.64 21.236 20.487 21.236 10.846 0 26.512 5.309 33.743 24.775 7.231 19.466 9.641 24.775 13.257 19.466 3.615-5.31 14.461-23.005 19.282-44.241 4.82-21.236 14.461-30.084 18.076-51.32 3.616-21.235 12.052-56.628 20.487-76.094 8.436-19.466 12.052-47.78 15.667-47.78s14.462-10.618 21.692 7.079c7.231 17.696 22.898 76.094 32.539 99.1 9.64 23.004 27.717 157.497 38.564 194.66 10.846 37.161 26.512 109.716 32.538 120.334 6.026 10.618 12.051 30.084 16.872 24.775 4.82-5.309 10.846-23.005 15.666-5.309 4.82 17.697 13.257 84.943 28.923 113.257 15.667 28.314 20.487 24.775 28.923 24.775s16.872 1.77 21.692 24.775 10.846 42.471 16.872 42.471 8.436 7.079 12.051 17.696c3.616 10.618 9.641 31.854 13.257 37.163 3.615 5.309 9.64-15.927 22.897-15.927 13.256 0 25.308-8.848 31.333 8.848 6.026 17.697 15.667 28.314 28.923 28.314 8.838 0 21.29 4.13 37.359 12.388 0-8.258 4.419-12.388 13.256-12.388 13.257 0 10.846 10.618 22.898 5.31 12.05-5.31 22.897-8.849 28.923-14.158 6.025-5.309 7.23-12.387 12.05-12.387 4.821 0 3.616 12.387 8.437 12.387 4.82 0 8.436-19.466 12.051-28.314 3.615-8.848 9.64 0 15.667 0 6.025 0 7.23-15.927 10.846-21.236 3.615-5.309 6.025-5.309 9.64 0 3.616 5.31 18.077 7.079 24.103-5.309 6.026-12.387 10.846 0 10.846 5.31 0 5.308 4.82 15.926 10.846 10.617 6.026-5.309 16.872-15.927 24.103-10.618 7.23 5.31 14.461-8.848 19.282-17.696 4.82-8.848 16.871-30.084 21.692-30.084 4.82 0 19.282-23.005 24.102-42.471 4.82-19.466 24.103-58.398 36.154-70.785 12.051-12.388 32.538-15.927 38.564-30.084 6.026-14.157 16.872-43.991 24.103-52.08 7.23-8.088 10.846 16.687 18.076 11.378 7.231-5.309 19.282-17.696 19.282-24.775 0-7.078 4.82-21.235 12.052-21.235 7.23 0 14.461-3.54 18.076-10.618 3.616-7.079 7.231-10.618 12.052 0 4.82 10.618 12.05 8.848 15.666 17.696 3.616 8.848 16.872 47.78 26.513 67.246 9.641 19.466 26.513 19.466 32.538 12.388 6.026-7.079 12.052 0 18.077 12.387 6.026 12.388 12.051 0 16.872 0 4.82 0 12.051 10.618 15.666 17.697 3.616 7.078 14.462 21.235 15.667 30.083 1.205 8.849 4.82 31.854 10.846 31.854s12.051 3.54 16.872-10.618c4.82-14.157 8.436-61.937 20.487-81.403 8.034-12.978 16.872-17.107 26.513-12.388 8.837-18.876 15.666-28.314 20.487-28.314 7.23 0 9.64 21.236 13.256 28.314 3.616 7.079 13.257 24.775 24.103 24.775 10.846 0 19.282 10.618 19.282 17.697 0 7.078 6.025 30.083 12.05 46.01 4.018 10.618 7.232 26.545 9.642 47.78 1.607 9.438 3.615 15.927 6.025 19.466 3.616 5.31 8.436 7.079 13.257 0 4.82-7.078 8.436 0 13.256 0s10.846-12.387 15.667-42.471c4.82-30.084 9.64-65.477 13.256-70.785 7.23 0 9.641 7.078 13.256 7.078 3.616 0 6.026-8.848 9.641-14.157 3.616-5.309 6.026-7.079 9.641 0 3.616 7.079 7.231 26.545 19.282 26.545 12.052 0 19.282-5.31 22.898 0 3.615 5.308 9.64 1.77 14.461-12.388 4.82-14.157 14.462-14.157 26.513-14.157 12.051 0 40.974-7.079 50.615-28.314 9.641-21.236 31.333-26.545 39.77-26.545 8.435 0 12.05-15.926 19.281-24.775 7.23-8.848 14.462-1.77 24.103-8.848 9.64-7.078 21.692-8.848 26.512 0s15.667-8.848 21.693 0c4.017 5.899 8.837 18.876 14.461 38.932 4.82-2.36 8.838 2.36 12.051 14.157 4.82 17.697 19.282 44.241 26.513 93.791 7.23 49.55 14.461 104.408 20.487 104.408 6.026 0 10.846-33.623 10.846-47.78 0-14.157 3.616-37.162 9.641-37.162 6.026 0 19.282 5.309 19.282 30.084s2.41 30.084 10.846 42.471c8.436 12.387 12.051 23.005 15.667 17.696 3.615-5.309 9.64-10.617 13.256 0 3.616 10.618 3.616 26.545 14.462 21.236 10.846-5.309 16.871 5.309 24.102 0 7.23-5.309 15.667-26.545 24.103-26.545 8.435 0 19.282 15.927 27.717 15.927 8.436 0 21.693 3.54 28.923-37.162 4.82-27.135 11.248-32.443 19.282-15.927 8.034 4.72 13.257 12.977 15.667 24.775 3.615 17.696 26.513 23.005 37.359 23.005s14.461-17.696 22.897-17.696c5.624 0 5.624 77.538 0 232.615H-1565.59c-3.213-27.663-3.213-45.034 0-52.112z" mask="url(#c)"/>
        <g fill="#1F1F1F" mask="url(#c)" opacity=".03">
            <path d="M0 152h1440v2H0zM0 42h1440v2H0zM0 262h1440v2H0zM0 372h1440v2H0zM0 482h1440v2H0z"/>
        </g>
    </g>
</svg>
