<svg xmlns="http://www.w3.org/2000/svg" width="13" height="18"><g fill="#FFF"><path d="M1.28 18h-1c-.154 0-.28-.189-.28-.422V.422C0 .189.126 0 .28 0h1c.154 0 .28.189.28.422v17.156c0 .233-.126.422-.28.422z"/><path d="M12.584 9.82H1.187a.356.356 0 0 1-.363-.35V.83c0-.192.162-.348.363-.348h11.397c.201 0 .364.156.364.349v8.64a.357.357 0 0 1-.364.349zM1.55 9.12h10.67V1.18H1.55v7.941z"/><path d="M1.187.83h2.246v2.16H1.187zm4.493 0h2.246v2.16H5.679zm4.492 0h2.246v2.16h-2.246zM1.187 5.15h2.246v2.16H1.187zm4.493 0h2.246v2.16H5.679zm4.492 0h2.246v2.16h-2.246zM3.433 2.99H5.68v2.16H3.433zm4.493 0h2.246v2.16H7.926z"/><path d="M3.433 7.31H5.68v2.16H3.433zm4.493 0h2.246v2.16H7.926z"/></g></svg>
