<svg xmlns="http://www.w3.org/2000/svg" viewBox="0 0 18 15">
    <path fill-rule="evenodd" d="M18 1.776a7.242 7.242 0 0 1-2.121.596A3.784 3.784 0 0 0 17.503.277a7.296 7.296 0 0 1-2.345.919A3.648 3.648 0 0 0 12.462 0C10.422 0 8.77 1.696 8.77 3.787c0 .297.033.586.096.862-3.07-.157-5.79-1.665-7.612-3.956-.317.56-.5 1.21-.5 1.904a3.81 3.81 0 0 0 1.643 3.152 3.612 3.612 0 0 1-1.673-.474v.048c0 1.835 1.273 3.365 2.962 3.713a3.594 3.594 0 0 1-1.667.064c.47 1.505 1.834 2.6 3.45 2.63A7.294 7.294 0 0 1 0 13.3 10.27 10.27 0 0 0 5.66 15c6.794 0 10.508-5.77 10.508-10.774 0-.164-.004-.328-.01-.49A7.613 7.613 0 0 0 18 1.776"/>
</svg>
