<svg xmlns="http://www.w3.org/2000/svg" viewBox="0 0 27 16">
<path d="M12.346 10.63l-1.713-6.192h6.855l-5.142 6.191zM9.862 5.004l1.67 6.04-5.366-.91 3.696-5.13zm9.858 2.57l-1.324-4.286-.034-.445 1.795-.414.237.332a.158.158 0 0 1 .029.127l-.093.417a.359.359 0 0 1-.125.197l-.707.436.464.776.727-.449a1.269 1.269 0 0 0 .512-.76l.094-.418a1.08 1.08 0 0 0-.178-.86l-.013-.018.134-.075a.443.443 0 0 0 .113-.09l.556-.616-.66-.614-.506.561-.255.144a.563.563 0 0 0-.31-.026l-2.202.508-.569.044.104 1.364a.469.469 0 0 0 .019.102l.005.018h-7.152l-.61-2.172c.294.009.582.016.758.016.09.009.422.12.711.24a.447.447 0 0 0 .583-.25.457.457 0 0 0-.246-.591c-.276-.115-.779-.306-1.038-.306-.229 0-.624-.013-.983-.024C9.346.436 9.147.43 9 .427 8.772.42 8.36.217 8.14.073a.444.444 0 0 0-.619.134.458.458 0 0 0 .132.628c.057.038.46.296.899.425l.325.183.677 2.45-4.539 6.302a.46.46 0 0 0-.053.44.45.45 0 0 0 .34.276l6.721 1.138.006-.035c.007.001.013.005.02.007a.439.439 0 0 0 .436-.151l5.557-6.691.83 2.683c.6 1.724 2.134 2.914 2.199 2.963l.538-.725c-.013-.01-1.382-1.072-1.89-2.526z"/>
<path d="M21.362 15.882c-.06 0-.12 0-.182-.003a5.483 5.483 0 0 1-5.295-5.294 5.43 5.43 0 0 1 1.602-4.052 5.42 5.42 0 0 1 4.051-1.6 5.483 5.483 0 0 1 5.295 5.294 5.428 5.428 0 0 1-1.601 4.051 5.423 5.423 0 0 1-3.87 1.604zm-4.57-5.326a4.574 4.574 0 0 0 4.418 4.416 4.536 4.536 0 0 0 3.38-1.335 4.53 4.53 0 0 0 1.336-3.38 4.574 4.574 0 0 0-4.417-4.417 4.521 4.521 0 0 0-3.38 1.336 4.527 4.527 0 0 0-1.336 3.38zM5.48 15.882c-.06 0-.121 0-.182-.003a5.483 5.483 0 0 1-5.295-5.294 5.428 5.428 0 0 1 1.601-4.052 5.423 5.423 0 0 1 4.052-1.6 5.483 5.483 0 0 1 5.294 5.294 5.428 5.428 0 0 1-1.6 4.051 5.424 5.424 0 0 1-3.87 1.604zM.91 10.556a4.574 4.574 0 0 0 4.417 4.416 4.54 4.54 0 0 0 3.38-1.335 4.53 4.53 0 0 0 1.336-3.38A4.574 4.574 0 0 0 5.627 5.84a4.527 4.527 0 0 0-3.38 1.336 4.53 4.53 0 0 0-1.337 3.38z"/>
</svg>
