<svg xmlns="http://www.w3.org/2000/svg" width="15" height="11" viewBox="0 0 15 11">
    <path fill="#F9FBFF" fill-rule="evenodd" d="M10.575 2.775c0-.064.036-.194.275-.41.12-.107.243-.209.368-.301L11.306 2l.417.376 3.094 2.793a.538.538 0 0 1 .183.4c0 .15-.066.292-.183.399l-2.593 2.34-.501.453-.107.097A.507.507 0 0 1 11.28 9c-.109.003-.274-.087-.454-.249a4.784 4.784 0 0 1-.334-.332l-.071-.079 1.912-1.726.533-.482H5.474a.512.512 0 0 1-.348-.114C5.046 5.951 5 5.782 5 5.552a4.32 4.32 0 0 1 .036-.549h.438l6.637.002h.755l-.533-.481-1.6-1.446a.42.42 0 0 1-.158-.303zM6.42 11H.579A.585.585 0 0 1 0 10.411V.588C0 .264.26 0 .58 0h5.84c.32 0 .58.264.58.588v.589H1.158v8.646H7v.589c0 .324-.26.588-.58.588z"/>
</svg>
