<svg xmlns="http://www.w3.org/2000/svg" viewBox="0 0 18 18"><path d="M8.979 1.618c2.398 0 2.68.01 3.628.054.877.039 1.351.185 1.668.31.42.164.72.356 1.034.67.314.314.51.613.67 1.034.121.317.27.79.31 1.668.043.948.054 1.23.054 3.628 0 2.399-.011 2.68-.054 3.629-.04.877-.185 1.35-.31 1.668a2.78 2.78 0 0 1-.67 1.033c-.314.314-.613.51-1.034.67-.317.122-.791.271-1.668.31-.948.043-1.23.054-3.628.054-2.4 0-2.68-.01-3.629-.053-.877-.04-1.35-.186-1.668-.31a2.787 2.787 0 0 1-1.034-.67 2.743 2.743 0 0 1-.67-1.034c-.121-.317-.27-.791-.31-1.668-.043-.948-.053-1.23-.053-3.629s.01-2.68.053-3.628c.04-.877.185-1.351.31-1.668.164-.421.357-.72.67-1.034.314-.314.613-.51 1.034-.67.317-.121.791-.271 1.668-.31.948-.047 1.23-.054 3.629-.054zm0-1.618C6.54 0 6.234.01 5.275.053 4.32.096 3.668.25 3.097.47a4.377 4.377 0 0 0-1.59 1.038A4.454 4.454 0 0 0 .47 3.098c-.22.57-.374 1.222-.417 2.18C.011 6.235 0 6.542 0 8.979c0 2.439.01 2.745.053 3.704.043.955.197 1.608.417 2.181a4.389 4.389 0 0 0 1.038 1.59 4.454 4.454 0 0 0 1.59 1.037c.57.221 1.222.375 2.18.417.96.043 1.263.054 3.704.054 2.442 0 2.745-.01 3.704-.054.955-.042 1.607-.196 2.18-.417a4.377 4.377 0 0 0 1.59-1.037 4.454 4.454 0 0 0 1.038-1.59c.22-.57.374-1.222.417-2.181.043-.959.053-1.262.053-3.703 0-2.442-.01-2.745-.053-3.704-.043-.955-.196-1.607-.417-2.181a4.377 4.377 0 0 0-1.037-1.59 4.454 4.454 0 0 0-1.59-1.037c-.57-.221-1.223-.374-2.181-.417C11.723.01 11.416 0 8.979 0z"/><path d="M8.982 4.37a4.613 4.613 0 0 0 0 9.224 4.615 4.615 0 0 0 4.612-4.612A4.615 4.615 0 0 0 8.982 4.37zm0 7.606a2.994 2.994 0 1 1 0-5.987 2.994 2.994 0 0 1 0 5.987z"/><circle cx="13.776" cy="4.188" r="1.076"/></svg>