<svg xmlns="http://www.w3.org/2000/svg" width="18" height="18" viewBox="0 0 18 18">
    <path fill-rule="evenodd" d="M5.751 10.787c-.264-.08-4.348-1.391-4.609-1.478-.26-.087-.173-.261.348-.522.522-.261 14.609-7.478 14.957-7.652.348-.174.608-.261.435.26-.174.522-2.435 10.174-2.783 11.479-.14.527-.174.435-.783.26-.608-.173-4.434-1.304-5.13-1.565-.373-.14-.348-.173.174-.782s5.304-6.348 5.304-6.348-6.087 5.59-6.695 6.087c-.61.498-.435.498-1.218.26zm2.522 1.565c.26.087 1.391.435 1.391.435s.261.087.087.348c-.116.174-.609.956-1.478 2.347-.116.174-.203.232-.261.174-.087-.087-.087-.956-.087-1.13v-2c0-.174.087-.26.348-.174z"/>
</svg>
