<svg height="14" viewBox="0 0 67 14" width="67" xmlns="http://www.w3.org/2000/svg"><path d="m53.298.78-2.71 5.352-2.713-5.352h-3.985l6.698 13.22 6.694-13.22zm-22.032 4.673c0-.402-.143-.702-.427-.896-.283-.196-.67-.293-1.154-.293h-1.815v2.435h1.796c.498 0 .89-.107 1.173-.32.284-.214.427-.512.427-.89zm10-5.453 6.697 13.22h-3.987l-2.71-5.352-2.71 5.352h-7.45l-2.347-3.554h-.889v3.554h-4.16v-12.44h6.081c1.114 0 2.03.128 2.745.382.719.255 1.295.602 1.734 1.04.38.378.664.806.854 1.278.189.475.284 1.033.284 1.67v.038c0 .911-.219 1.682-.659 2.31-.437.627-1.035 1.126-1.795 1.492l2.162 3.156zm18.639 0-6.697 13.22h3.987l2.71-5.352 2.71 5.352h3.986zm-48.265 4.297h3.662v8.923h4.16v-8.923h3.663v-3.517h-11.484v3.517zm-.15 3.306c.255.44.382.973.382 1.6v.036c0 .651-.13 1.24-.391 1.76-.26.522-.628.962-1.102 1.324-.475.361-1.05.64-1.725.835-.675.197-1.434.295-2.274.295-1.268 0-2.45-.177-3.547-.525-1.096-.35-2.04-.875-2.834-1.572l2.221-2.648a6.62 6.62 0 0 0 2.133 1.12 7.673 7.673 0 0 0 2.222.337c.38 0 .652-.048.818-.141.167-.096.248-.226.248-.392v-.035c0-.18-.123-.329-.364-.445-.242-.119-.697-.242-1.36-.373-.7-.142-1.366-.31-2-.498a6.886 6.886 0 0 1 -1.67-.729 3.514 3.514 0 0 1 -1.147-1.12c-.283-.45-.425-1.002-.425-1.652v-.036c0-.593.115-1.144.347-1.653.229-.51.567-.955 1.012-1.333.444-.38.997-.675 1.655-.89.655-.213 1.41-.32 2.266-.32 1.207 0 2.264.144 3.171.429a7.56 7.56 0 0 1 2.445 1.278l-2.026 2.808a6.232 6.232 0 0 0 -1.876-.935 6.518 6.518 0 0 0 -1.858-.294c-.307 0-.535.048-.683.143-.151.095-.222.22-.222.373v.035c0 .167.11.31.337.428.226.118.664.243 1.315.374.794.14 1.516.313 2.17.513.65.204 1.212.46 1.679.775.468.314.83.689 1.085 1.128z" fill="#fffffe" fill-rule="evenodd" opacity=".5"/></svg>