<svg height="32" viewBox="0 0 90 32" width="90" xmlns="http://www.w3.org/2000/svg"><g fill="#999" fill-rule="evenodd"><path d="m1.841 18.416c-.504.249-1.652 1.97-.413 5.352s3.06 3.412 3.66 3.252 1.595-1.073 1.215-3.93-1.957-4.231-1.957-4.231c-.851-.844-1.876-.757-2.38-.508zm2.439-.362c.068.034 2.721 1.03 3.436 4.107s-.195 5.052-2.226 5.678c-2.03.626-4.484-1.465-5.118-3.571-.634-2.108-.53-4.448.872-5.725 1.152-1.05 2.735-.598 2.784-.576s.172.047.252.087zm26.92 7.546v-2.218h-5.872a.726.726 0 0 1 -.724-.729v-3.706c0-.403.4-.729.724-.729h5.872v-2.218h-5.872c-1.603 0-2.928 1.334-2.928 2.947v3.706c0 1.613 1.325 2.947 2.928 2.947zm8.33 0v-3.691h1.49c1.647 0 2.98-1.334 2.98-2.962v-2.947h-2.243v2.947c0 .419-.33.744-.737.744h-5.24c-.345 0-.737-.325-.737-.744v-2.947h-2.243v2.947c0 1.628 1.349 2.962 2.98 2.962h1.506v3.691h2.243zm14.07 0v-2.218h-5.872a.726.726 0 0 1 -.724-.729v-3.706c0-.403.4-.729.724-.729h5.872v-2.218h-5.872c-1.603 0-2.928 1.334-2.928 2.947v3.706c0 1.613 1.325 2.947 2.928 2.947zm9.6 0h-5.872c-1.603 0-2.928-1.334-2.928-2.947v-6.653h2.204v6.653c0 .404.324.73.724.73h5.872zm.8 0h2.4v-9.6h-2.4zm3.2 0h2.23v-6.653a.73.73 0 0 1 .733-.729h4.459c.358 0 .748.326.748.73v6.652h2.23v-6.653c0-1.613-1.341-2.947-2.978-2.947h-4.459c-1.622 0-2.963 1.334-2.963 2.947zm22.29-9.6v2.218h-8.11c-.204 0-.737.326-.737.729v3.706c0 .404.392.729.737.729h5.24a.732.732 0 0 0 .737-.729.736.736 0 0 0 -.737-.744h-3.734v-2.219h3.734a2.976 2.976 0 0 1 2.98 2.962c0 1.613-1.333 2.947-2.98 2.947h-5.24c-1.631 0-2.98-1.334-2.98-2.947v-3.706c0-1.613 1.349-2.947 2.98-2.947h8.11zm-58.291-3.747c0 .404-.37.73-.806.73h-5.593l-.017-1.474h5.609c.436 0 .806.326.806.744zm-.907-4.435c.437 0 .806.325.806.729 0 .418-.37.744-.806.744h-5.49v-1.473zm-7.892 7.382h7.993c1.763 0 3.207-1.334 3.207-2.947 0-.729-.37-1.395-.84-1.907.42-.497.655-1.132.655-1.8 0-1.612-1.444-2.946-3.207-2.946h-7.808zm12.8-9.6v9.6h2.401v-3.7h5.71c.386.046.688.371.688.742v2.942h2.401v-2.942c0-.727-.286-1.393-.773-1.904a3.14 3.14 0 0 0 .588-1.796c0-1.61-1.444-2.942-3.207-2.942zm7.892 2.214c.437 0 .806.325.806.728 0 .418-.37.743-.806.743h-5.49v-1.471zm4.108 7.386h2.4v-9.6h-2.4zm7.999-7.382h-3.999v-2.218h10.4v2.218h-3.999v7.382h-2.402zm7.201 7.382h2.4v-9.6h-2.4zm11.944-3.7h-5.538c-1.746 0-3.189-1.332-3.189-2.958 0-1.61 1.443-2.942 3.19-2.942h8.793v2.214h-8.794c-.436 0-.789.325-.789.728 0 .418.369.743.79.743h5.537c1.763 0 3.206 1.347 3.206 2.973 0 1.61-1.443 2.942-3.206 2.942h-8.744v-2.23h8.744c.437 0 .806-.325.806-.728 0-.417-.37-.743-.806-.743m12.854.01h-5.595v3.691h-2.403v-9.6h2.403v3.691h5.595v-3.691h2.402v9.6h-2.402zm-86.3-11.509s-.016 4.626 4.39 7.143c4.407 2.518 4.39 3.32 4.634 3.8 0 0 .653.467.504-1.173-.15-1.64-.485-2.118-.765-2.331 0 0 1.58.969 1.538 2.349s-.241 2.143-.94 2.967c0 0-.437 1.75-1.275 2.445 0 0 .153-.805.145-1.028-.008-.222-.149-.35-.326-.21-.176.139-2.373.97-3.807.263 0 0-.144-.218-.018-.49.127-.27.632-1.4 1.037-1.502.405-.103 1.637.033 1.91.024.272-.01.813-.117.156-.717-.658-.6-1.223-1.16-2.427-1.785-1.204-.626-2.522-1.915-3.095-2.696s-2.169-3.44-1.66-7.059"/><path d="m9.255 4c.299.005 1.281.25 1.13 1.34-.133.945-.736 1.062-1.202 1.06a1.212 1.212 0 0 1 -1.182-1.277c.022-.829.915-1.078.915-1.078s.144-.048.339-.045m1.145 3.535 1.014 1.265s3.304-3.672 2.961-6.4c0 0-2.407 3.953-3.975 5.135m-5.6 7.665s1.532.348 2.243.234c0 0 2.196 2.321 3.203 3.366.724.752 1.141 1.967.871 3.18-.27 1.214-.758 2.613-1.527 3.62 0 0 .296-1.75.27-2.506-.027-.757-.018-1.783-.952-2.91-.933-1.126-3.607-3.44-4.108-4.984m8.46.944s2.404.637 2.712 2.074c.307 1.436-1.973 1.882-2.453 1.764-.48-.12-.275-.443-.015-.453s1.563.124 1.539-.6c-.024-.722-.551-.93-.946-1.096-.396-.166-1.758-.75-2.032-1.192-.275-.443.36-.874 1.196-.497m1.833 13.623c1.909 1.854 3.5 1.391 3.95-.472s-.224-3.502-.5-4.272c-.274-.77-2.402-4.787-4.845-3.432-1.694.94-.806 6.04 1.395 8.176m-3.076-5.34c.07-.942.372-1.546.55-1.864 1.408-2.518 4.526-2.186 6.427.025 1.9 2.211 2.3 6.136 1.2 7.875s-3.726 2.46-6.327-.323c-1.442-1.544-1.977-4.004-1.85-5.713"/></g></svg>