<svg xmlns="http://www.w3.org/2000/svg" viewBox="0 0 232 26">
    <path fill="#FFF" fill-rule="evenodd" d="M.129.443h3.515V25H.13V.443zm17.365 0h3.515v21.358h11.057V25H17.494V.443zm39.935 0h4.394L51.171 12.08 64.442 25h-4.816L47.093 12.871V25h-3.516V.443h3.516v11.233L57.429.443zm18.12 0h3.516v21.358h11.057V25H75.549V.443zm26.049 0h13.922v3.13h-10.407v7.488h10.055v3.146h-10.055v7.629h10.74v3.129h-14.255V.443zm41.183 0h4.254l-9.07 11.567V25h-3.604V12.01L125.291.443h4.254l6.574 8.473L142.78.443zm54.927 18.862v3.867c-2.578 1.406-5.555 2.11-8.93 2.11-2.742 0-5.068-.552-6.978-1.653a12.167 12.167 0 0 1-4.535-4.553 12.364 12.364 0 0 1-1.67-6.275c0-3.574 1.274-6.58 3.823-9.018 2.549-2.437 5.692-3.656 9.43-3.656 2.579 0 5.444.674 8.596 2.021v3.78c-2.87-1.64-5.677-2.461-8.42-2.461-2.812 0-5.147.887-7.004 2.663-1.858 1.775-2.787 3.999-2.787 6.67 0 2.696.914 4.91 2.743 6.645 1.828 1.735 4.166 2.602 7.013 2.602 2.977 0 5.883-.914 8.719-2.742zm33.888 0v3.867c-2.578 1.406-5.554 2.11-8.93 2.11-2.742 0-5.068-.552-6.978-1.653a12.167 12.167 0 0 1-4.535-4.553 12.364 12.364 0 0 1-1.67-6.275c0-3.574 1.274-6.58 3.823-9.018 2.55-2.437 5.693-3.656 9.43-3.656 2.579 0 5.444.674 8.597 2.021v3.78c-2.871-1.64-5.678-2.461-8.42-2.461-2.813 0-5.148.887-7.005 2.663-1.858 1.775-2.786 3.999-2.786 6.67 0 2.696.914 4.91 2.742 6.645 1.828 1.735 4.166 2.602 7.014 2.602 2.976 0 5.882-.914 8.718-2.742z"/>
</svg>
