<svg height="48" viewBox="0 0 170 48" width="170" xmlns="http://www.w3.org/2000/svg"><g fill="none" fill-rule="evenodd"><path d="m1 27.25h3.906v-27.25h-3.906zm20.36 0h16.19v-3.55h-12.284v-23.7h-3.907v27.25zm33.95-14.785v-12.465h-3.906v27.25h3.906v-13.459l13.945 13.46h5.331l-14.743-14.319 11.834-12.932h-4.88zm32.684 14.785h16.19v-3.55h-12.284v-23.7h-3.906zm30.007-.039h15.839v-3.471h-11.933v-8.465h11.17v-3.492h-11.17v-8.31h11.562v-3.473h-15.469v27.211zm39.406-17.817-7.3-9.394h-4.716l10.077 12.835v14.415h4.004v-14.415l10.077-12.835h-4.742z" fill="#fefefe"/><path d="m6.29 46.457c-1.337 0-2.435-.414-3.293-1.241-.859-.827-1.288-1.884-1.288-3.17 0-1.275.436-2.336 1.308-3.183.872-.846 1.969-1.27 3.29-1.27 1.288 0 2.606.392 3.955 1.174v-1.803c-1.482-.643-2.827-.964-4.038-.964-1.755 0-3.231.581-4.428 1.744s-1.796 2.596-1.796 4.302a5.97 5.97 0 0 0 .784 2.994 5.757 5.757 0 0 0 2.13 2.172c.897.525 1.99.788 3.278.788 1.584 0 2.982-.335 4.194-1.006v-1.845c-1.333.872-2.698 1.308-4.095 1.308zm14.33-6.268-3.086-4.039h-1.994l4.259 5.518v6.198h1.693v-6.198l4.26-5.518h-2.005l-3.128 4.04zm16.644 6.268c-1.338 0-2.435-.414-3.294-1.241-.858-.827-1.288-1.884-1.288-3.17 0-1.275.436-2.336 1.309-3.183.872-.846 1.969-1.27 3.29-1.27 1.288 0 2.605.392 3.954 1.174v-1.803c-1.48-.643-2.826-.964-4.037-.964-1.755 0-3.232.581-4.429 1.744s-1.795 2.597-1.795 4.302a5.97 5.97 0 0 0 .784 2.994 5.757 5.757 0 0 0 2.13 2.172c.897.525 1.99.788 3.277.788 1.585 0 2.983-.335 4.194-1.006v-1.845c-1.332.872-2.697 1.308-4.095 1.308zm10.522 1.409h6.843v-1.527h-5.192v-10.189h-1.651zm12.7 0h1.65v-11.715h-1.65zm17.77-2.616-7.777-9.1h-1.337v11.716h1.551v-9.022l7.711 9.022h1.42v-11.716h-1.569v9.1zm14.664-1.66h2.22v2.44l-.156.05c-.92.308-1.71.462-2.37.462-1.359 0-2.47-.422-3.335-1.266-.864-.845-1.296-1.932-1.296-3.262 0-1.27.432-2.34 1.296-3.212s1.926-1.309 3.187-1.309c1.354 0 2.718.406 4.094 1.216v-1.71c-.89-.38-1.629-.642-2.212-.784a7.735 7.735 0 0 0 -1.85-.214c-1.782 0-3.266.581-4.45 1.744-1.182 1.163-1.774 2.62-1.774 4.369 0 1.66.572 3.057 1.713 4.189 1.143 1.131 2.669 1.697 4.579 1.697 1.397 0 2.806-.313 4.227-.94v-4.963h-3.873v1.492zm25.615 2.868c-1.337 0-2.435-.414-3.293-1.241-.859-.827-1.288-1.884-1.288-3.17 0-1.275.436-2.336 1.309-3.183.872-.846 1.969-1.27 3.29-1.27 1.287 0 2.605.392 3.954 1.174v-1.803c-1.481-.643-2.826-.964-4.037-.964-1.756 0-3.232.581-4.43 1.744-1.196 1.163-1.795 2.597-1.795 4.302a5.97 5.97 0 0 0 .784 2.994 5.763 5.763 0 0 0 2.13 2.172c.898.525 1.99.788 3.278.788 1.584 0 2.983-.335 4.193-1.006v-1.845c-1.332.872-2.696 1.308-4.095 1.308zm10.522 1.409h6.843v-1.527h-5.192v-10.19h-1.651v11.716zm20.708-5.066c0 .924-.071 1.575-.215 1.954-.143.381-.377.71-.701.99-.617.52-1.415.78-2.394.78-.688 0-1.285-.13-1.792-.39-.506-.26-.883-.605-1.13-1.036-.248-.43-.372-1.196-.372-2.298v-6.65h-1.659v6.634c0 .944.062 1.638.185 2.08.124.441.281.814.47 1.12.19.304.423.579.698.825.909.794 2.114 1.191 3.616 1.191 1.475 0 2.67-.4 3.584-1.2.274-.24.507-.512.696-.817.19-.305.35-.686.48-1.145.129-.458.194-1.138.194-2.038v-6.65h-1.66zm14.447 4.621c.586-.296 1.03-.679 1.333-1.148.303-.47.454-1.004.454-1.602 0-.755-.25-1.404-.747-1.946-.498-.542-1.169-.894-2.01-1.057 1.172-.497 1.758-1.322 1.758-2.473 0-.598-.14-1.125-.42-1.581-.281-.456-.69-.813-1.222-1.073-.535-.26-1.278-.39-2.23-.39h-3.021v11.715h3.905c.88 0 1.613-.148 2.2-.445zm-.92-8.092c0 .542-.186.984-.558 1.325-.371.341-.997.511-1.878.511h-1.098v-3.522h1.42c1.41 0 2.113.562 2.113 1.686zm-.19 3.547c.38.145.672.367.879.663.206.296.31.623.31.981 0 .346-.098.67-.294.973a1.758 1.758 0 0 1 -.775.666c-.323.143-.935.214-1.838.214h-1.626v-3.715h1.544c.82 0 1.42.072 1.8.218z" fill="#fff"/></g></svg>